<?xml version="1.0" encoding="UTF-8" standalone="no"?>
<!-- Created with Inkscape (http://www.inkscape.org/) -->

<svg
   xmlns:dc="http://purl.org/dc/elements/1.1/"
   xmlns:cc="http://creativecommons.org/ns#"
   xmlns:rdf="http://www.w3.org/1999/02/22-rdf-syntax-ns#"
   xmlns:svg="http://www.w3.org/2000/svg"
   xmlns="http://www.w3.org/2000/svg"
   xmlns:sodipodi="http://sodipodi.sourceforge.net/DTD/sodipodi-0.dtd"
   xmlns:inkscape="http://www.inkscape.org/namespaces/inkscape"
   id="svg4196"
   version="1.1"
   inkscape:version="0.91 r13725"
   xml:space="preserve"
   width="450"
   height="450"
   viewBox="0 0 450 450"
   sodipodi:docname="disequ.svg"><metadata
     id="metadata4202"><rdf:RDF><cc:Work
         rdf:about=""><dc:format>image/svg+xml</dc:format><dc:type
           rdf:resource="http://purl.org/dc/dcmitype/StillImage" /><dc:title /></cc:Work></rdf:RDF></metadata><defs
     id="defs4200"><clipPath
       clipPathUnits="userSpaceOnUse"
       id="clipPath4228"><path
         d="m 59.04,73.44 270.72,0 0,227.52 -270.72,0 0,-227.52 z"
         id="path4230"
         inkscape:connector-curvature="0" /></clipPath><clipPath
       clipPathUnits="userSpaceOnUse"
       id="clipPath4250"><path
         d="m 59.04,73.44 270.72,0 0,227.52 -270.72,0 0,-227.52 z"
         id="path4252"
         inkscape:connector-curvature="0" /></clipPath><marker
       inkscape:stockid="Arrow1Sstart"
       orient="auto"
       refY="0"
       refX="0"
       id="Arrow1Sstart"
       style="overflow:visible"
       inkscape:isstock="true"><path
         inkscape:connector-curvature="0"
         id="path7684"
         d="M 0,0 5,-5 -12.5,0 5,5 0,0 Z"
         style="fill:#000000;fill-opacity:1;fill-rule:evenodd;stroke:#000000;stroke-width:1pt;stroke-opacity:1"
         transform="matrix(0.2,0,0,0.2,1.2,0)" /></marker></defs><sodipodi:namedview
     pagecolor="#ffffff"
     bordercolor="#666666"
     borderopacity="1"
     objecttolerance="10"
     gridtolerance="10"
     guidetolerance="10"
     inkscape:pageopacity="0"
     inkscape:pageshadow="2"
     inkscape:window-width="1867"
     inkscape:window-height="1053"
     id="namedview4198"
     showgrid="false"
     inkscape:zoom="2.0977778"
     inkscape:cx="100.34428"
     inkscape:cy="228.27152"
     inkscape:window-x="1973"
     inkscape:window-y="27"
     inkscape:window-maximized="1"
     inkscape:current-layer="g4204" /><g
     id="g4204"
     inkscape:groupmode="layer"
     inkscape:label="disequ"
     transform="matrix(1.25,0,0,-1.25,0,450)"><g
       id="g4206" /><g
       id="g4208"><path
         d="m 59.04,73.44 0,227.52"
         style="fill:none;stroke:#000000;stroke-width:0.75;stroke-linecap:round;stroke-linejoin:round;stroke-miterlimit:10;stroke-dasharray:none;stroke-opacity:1"
         id="path4210"
         inkscape:connector-curvature="0" /><path
         d="m 59.04,73.44 0,0"
         style="fill:none;stroke:#000000;stroke-width:0.75;stroke-linecap:round;stroke-linejoin:round;stroke-miterlimit:10;stroke-dasharray:none;stroke-opacity:1"
         id="path4212"
         inkscape:connector-curvature="0" /><path
         d="m 59.04,300.96 0,0"
         style="fill:none;stroke:#000000;stroke-width:0.75;stroke-linecap:round;stroke-linejoin:round;stroke-miterlimit:10;stroke-dasharray:none;stroke-opacity:1"
         id="path4214"
         inkscape:connector-curvature="0" /><text
         transform="matrix(1,0,0,-1,48.05,69.13)"
         style="font-variant:normal;font-weight:normal;font-size:12px;font-family:Helvetica;-inkscape-font-specification:Helvetica;writing-mode:lr-tb;fill:#000000;fill-opacity:1;fill-rule:nonzero;stroke:none"
         id="text4216"><tspan
           x="0"
           y="0"
           id="tspan4218">0</tspan></text>
<text
         transform="matrix(1,0,0,-1,48.05,296.65)"
         style="font-variant:normal;font-weight:normal;font-size:12px;font-family:Helvetica;-inkscape-font-specification:Helvetica;writing-mode:lr-tb;fill:#000000;fill-opacity:1;fill-rule:nonzero;stroke:none"
         id="text4220"><tspan
           x="0"
           y="0"
           id="tspan4222">1</tspan></text>
</g><g
       id="g4224"><g
         id="g4226"
         clip-path="url(#clipPath4228)"><path
           d="m 59.04,73.44 270.72,0"
           style="fill:none;stroke:#000000;stroke-width:0.75;stroke-linecap:round;stroke-linejoin:round;stroke-miterlimit:10;stroke-dasharray:none;stroke-opacity:1"
           id="path4232"
           inkscape:connector-curvature="0" /><path
           d="m 59.04,73.44 0,227.52"
           style="fill:none;stroke:#000000;stroke-width:0.75;stroke-linecap:round;stroke-linejoin:round;stroke-miterlimit:10;stroke-dasharray:none;stroke-opacity:1"
           id="path4234"
           inkscape:connector-curvature="0" /></g></g><g
       id="g4236"><text
         transform="matrix(0,1,1,0,41.76,131.85)"
         style="font-variant:normal;font-weight:normal;font-size:12px;font-family:Helvetica;-inkscape-font-specification:Helvetica;writing-mode:lr-tb;fill:#000000;fill-opacity:1;fill-rule:nonzero;stroke:none"
         id="text4238"><tspan
           x="0 8.6639996 11.328 17.327999 20.664 27.336 34.007999 40.007999 46.68 50.015999 56.688 60.023998 62.688 64.980003 71.652 78.323997 84.996002 87.660004 90.323997 92.987999 99.660004 103.656"
           y="0"
           sodipodi:role="line"
           id="tspan4240">Distance à l'équilibre</tspan></text>
<text
         transform="matrix(1,0,0,-1,176.78,47.52)"
         style="font-variant:normal;font-weight:normal;font-size:12px;font-family:Helvetica;-inkscape-font-specification:Helvetica;writing-mode:lr-tb;fill:#000000;fill-opacity:1;fill-rule:nonzero;stroke:none"
         id="text4242"><tspan
           x="0 5.8920002 12.564 22.559999 29.232"
           y="0"
           sodipodi:role="line"
           id="tspan4244">Temps</tspan></text>
</g><g
       id="g4246"><g
         id="g4248"
         clip-path="url(#clipPath4250)"><path
           d="m 59.04,300.96 2.71,-11.17 2.7,-10.63 2.71,-10.11 2.71,-9.61 2.71,-9.15 2.7,-8.7 2.71,-8.28 2.71,-7.87 2.7,-7.49 2.71,-7.12 2.71,-6.78 2.71,-6.44 2.7,-6.13 2.71,-5.83 2.71,-5.55 2.71,-5.28 2.7,-5.02 2.71,-4.77 2.71,-4.55 2.7,-4.32 2.71,-4.11 2.71,-3.9 2.71,-3.72 2.7,-3.54 2.71,-3.37 2.71,-3.2 2.7,-3.04 2.71,-2.9 2.71,-2.75 2.71,-2.62 2.7,-2.5 2.71,-2.37 2.71,-2.25 2.7,-2.15 2.71,-2.04 2.71,-1.94 2.71,-1.85 2.7,-1.75 2.71,-1.67 2.71,-1.59 2.71,-1.51 2.7,-1.44 2.71,-1.37 2.71,-1.3 2.7,-1.24 2.71,-1.18 2.71,-1.12 2.71,-1.06 2.7,-1.02 2.71,-0.96 2.71,-0.92 2.7,-0.87 2.71,-0.83 2.71,-0.79 2.71,-0.75 2.7,-0.71 2.71,-0.68 2.71,-0.65 2.7,-0.61 2.71,-0.59 2.71,-0.56 2.71,-0.52 2.7,-0.51 2.71,-0.48 2.71,-0.45 2.71,-0.43 2.7,-0.42 2.71,-0.39 2.71,-0.37 2.7,-0.36 2.71,-0.33 2.71,-0.32 2.71,-0.31 2.7,-0.29 2.71,-0.28 2.71,-0.26 2.7,-0.25 2.71,-0.24 2.71,-0.22 2.71,-0.22 2.7,-0.2 2.71,-0.2 2.71,-0.18 2.7,-0.18 2.71,-0.17 2.71,-0.16 2.71,-0.15 2.7,-0.14 2.71,-0.14 2.71,-0.13 2.71,-0.12 2.7,-0.12 2.71,-0.11 2.71,-0.11 2.7,-0.1 2.71,-0.1 2.71,-0.09 2.71,-0.09 2.7,-0.08 2.71,-0.08"
           style="fill:none;stroke:#000000;stroke-width:0.75;stroke-linecap:round;stroke-linejoin:round;stroke-miterlimit:10;stroke-dasharray:none;stroke-opacity:1"
           id="path4254"
           inkscape:connector-curvature="0" /></g></g><path
       sodipodi:nodetypes="ccc"
       inkscape:export-ydpi="90"
       inkscape:export-xdpi="90"
       inkscape:connector-curvature="0"
       id="path4170-0"
       d="M 63.01312,265.19807 62.886383,202.12216 62.64801,83.49713"
       style="opacity:0.97000002;fill:#000000;fill-opacity:1;fill-rule:evenodd;stroke:#000000;stroke-width:0.8;stroke-linecap:butt;stroke-linejoin:miter;stroke-miterlimit:4;stroke-dasharray:1.6,0.8;stroke-opacity:1;marker-start:url(#Arrow1Sstart);stroke-dashoffset:0" /><flowRoot
       transform="matrix(0.8,0,0,-0.8,-272.19877,478.77633)"
       style="font-style:normal;font-weight:normal;font-size:40px;line-height:125%;font-family:sans-serif;letter-spacing:0px;word-spacing:0px;fill:#000000;fill-opacity:1;stroke:none;stroke-width:1px;stroke-linecap:butt;stroke-linejoin:miter;stroke-opacity:1"
       id="flowRoot4206"
       xml:space="preserve"><flowRegion
         id="flowRegion4208"><rect
           y="344.24527"
           x="473.76154"
           height="51.51778"
           width="58.588848"
           id="rect4210" /></flowRegion><flowPara
         style="font-style:normal;font-variant:normal;font-weight:normal;font-stretch:normal;font-size:12.5px;line-height:125%;font-family:'Amiri Quran';-inkscape-font-specification:'Amiri Quran, Normal';text-align:start;writing-mode:lr-tb;text-anchor:start"
         id="flowPara4212"><flowSpan
           style="fill:#b50000;fill-opacity:1"
           id="flowSpan4925">τ</flowSpan><flowSpan
           id="flowSpan8056"
           style="font-style:normal;font-variant:normal;font-weight:normal;font-stretch:normal;font-size:11.25px;line-height:125%;font-family:'Amiri Quran';-inkscape-font-specification:'Amiri Quran, Normal';text-align:start;writing-mode:lr-tb;text-anchor:start;fill:#b50000;fill-opacity:1">=pente</flowSpan></flowPara></flowRoot></g></svg>